<svg width="250" height="59" viewBox="0 0 250 59" fill="none" xmlns="http://www.w3.org/2000/svg">
<path d="M23.0264 58.1572L8.77197 43.8286H23.0264V58.1572Z" fill="#A90101"/>
<g filter="url(#filter0_d_47_81)">
<path d="M8.77197 0H241.228L225.627 21.9143L241.228 43.8286H8.77197L9.02197 21.9143L8.77197 0Z" fill="url(#paint0_linear_47_81)"/>
</g>
<path d="M59.04 17.67C61.632 17.67 63.486 19.47 63.486 21.684C63.486 23.178 62.964 24.132 61.884 25.464L58.23 30H56.142L59.724 25.536C59.364 25.662 59.004 25.716 58.662 25.716C56.304 25.716 54.576 24.114 54.576 21.774C54.576 19.47 56.448 17.67 59.04 17.67ZM59.022 19.2C57.582 19.2 56.466 20.208 56.466 21.72C56.466 23.322 57.582 24.294 59.022 24.294C60.444 24.294 61.596 23.43 61.596 21.738C61.596 20.208 60.444 19.2 59.022 19.2ZM64.9367 23.934C64.9367 19.902 66.5387 17.652 69.4187 17.652C72.2987 17.652 73.9187 19.902 73.9187 23.934C73.9187 27.966 72.3347 30.18 69.4187 30.18C66.5027 30.18 64.9367 27.966 64.9367 23.934ZM66.8087 23.934C66.8087 26.94 67.7087 28.542 69.4187 28.542C71.1287 28.542 72.0467 26.958 72.0467 23.934C72.0467 20.892 71.1287 19.29 69.4187 19.29C67.7447 19.29 66.8087 20.892 66.8087 23.934ZM79.1149 25.284C76.9189 25.284 75.3349 23.592 75.3349 21.504C75.3349 19.416 76.9189 17.724 79.1149 17.724C81.3289 17.724 82.9129 19.416 82.9129 21.504C82.9129 23.592 81.3289 25.284 79.1149 25.284ZM81.7069 30H80.2129L87.0889 17.832H88.5829L81.7069 30ZM79.1149 23.97C80.3389 23.97 81.3829 23.106 81.3829 21.504C81.3829 19.884 80.3389 19.038 79.1149 19.038C77.9089 19.038 76.8649 19.884 76.8649 21.504C76.8649 23.106 77.9089 23.97 79.1149 23.97ZM89.8789 30.144C87.6649 30.144 86.0989 28.47 86.0989 26.364C86.0989 24.276 87.6649 22.584 89.8789 22.584C92.0929 22.584 93.6589 24.276 93.6589 26.364C93.6589 28.47 92.0929 30.144 89.8789 30.144ZM89.8789 28.83C91.1029 28.83 92.1289 27.966 92.1289 26.364C92.1289 24.762 91.1029 23.916 89.8789 23.916C88.6729 23.916 87.6109 24.762 87.6109 26.364C87.6109 27.966 88.6729 28.83 89.8789 28.83ZM106.783 27.156C106.783 29.028 105.325 30.18 102.787 30.18C100.267 30.18 98.7729 28.938 98.5929 26.886H100.339C100.411 28.074 101.365 28.812 102.823 28.812C104.101 28.812 104.947 28.362 104.947 27.462C104.947 26.67 104.461 26.328 103.273 26.094L101.725 25.806C99.9609 25.464 98.9709 24.564 98.9709 23.124C98.9709 21.45 100.429 20.28 102.643 20.28C104.929 20.28 106.477 21.504 106.639 23.466H104.893C104.785 22.314 103.939 21.648 102.661 21.648C101.509 21.648 100.735 22.134 100.735 22.962C100.735 23.736 101.221 24.096 102.373 24.312L103.993 24.618C105.883 24.96 106.783 25.788 106.783 27.156ZM112.53 30.198C109.92 30.198 108.084 28.146 108.084 25.23C108.084 22.35 109.956 20.28 112.53 20.28C114.888 20.28 116.598 21.846 116.94 24.33H115.032C114.834 22.8 113.88 21.882 112.548 21.882C110.982 21.882 109.956 23.214 109.956 25.23C109.956 27.264 110.982 28.578 112.548 28.578C113.898 28.578 114.834 27.678 115.05 26.13H116.94C116.616 28.65 114.924 30.198 112.53 30.198ZM120.588 24.618V30H118.77V17.076H120.588V21.99C121.218 20.964 122.19 20.28 123.504 20.28C125.466 20.28 126.762 21.54 126.762 23.826V30H124.944V24.438C124.944 22.8 124.224 21.882 122.874 21.882C121.632 21.882 120.588 22.926 120.588 24.618ZM133.172 30.18C130.472 30.18 128.492 28.056 128.492 25.23C128.492 22.404 130.472 20.28 133.172 20.28C135.872 20.28 137.852 22.404 137.852 25.23C137.852 28.056 135.872 30.18 133.172 30.18ZM133.172 28.578C134.738 28.578 135.98 27.318 135.98 25.23C135.98 23.142 134.738 21.9 133.172 21.9C131.606 21.9 130.382 23.142 130.382 25.23C130.382 27.318 131.606 28.578 133.172 28.578ZM141.541 30H139.705V17.076H141.541V30ZM149.843 30V28.524C149.249 29.586 148.187 30.18 146.783 30.18C144.803 30.18 143.507 29.046 143.507 27.3C143.507 25.428 145.001 24.456 147.845 24.456C148.403 24.456 148.853 24.474 149.627 24.564V23.862C149.627 22.494 148.889 21.72 147.629 21.72C146.297 21.72 145.487 22.512 145.433 23.844H143.777C143.867 21.702 145.397 20.28 147.629 20.28C149.987 20.28 151.355 21.612 151.355 23.88V30H149.843ZM145.235 27.246C145.235 28.236 145.973 28.884 147.143 28.884C148.673 28.884 149.627 27.93 149.627 26.472V25.698C148.925 25.608 148.421 25.59 147.953 25.59C146.135 25.59 145.235 26.13 145.235 27.246ZM155.603 25.122V30H153.785V20.46H155.477V22.476C156.143 21.162 157.583 20.334 159.149 20.334V22.224C157.097 22.116 155.603 23.016 155.603 25.122ZM168.148 27.156C168.148 29.028 166.69 30.18 164.152 30.18C161.632 30.18 160.138 28.938 159.958 26.886H161.704C161.776 28.074 162.73 28.812 164.188 28.812C165.466 28.812 166.312 28.362 166.312 27.462C166.312 26.67 165.826 26.328 164.638 26.094L163.09 25.806C161.326 25.464 160.336 24.564 160.336 23.124C160.336 21.45 161.794 20.28 164.008 20.28C166.294 20.28 167.842 21.504 168.004 23.466H166.258C166.15 22.314 165.304 21.648 164.026 21.648C162.874 21.648 162.1 22.134 162.1 22.962C162.1 23.736 162.586 24.096 163.738 24.312L165.358 24.618C167.248 24.96 168.148 25.788 168.148 27.156ZM171.951 24.618V30H170.133V17.076H171.951V21.99C172.581 20.964 173.553 20.28 174.867 20.28C176.829 20.28 178.125 21.54 178.125 23.826V30H176.307V24.438C176.307 22.8 175.587 21.882 174.237 21.882C172.995 21.882 171.951 22.926 171.951 24.618ZM182.753 18.246C182.753 18.93 182.213 19.452 181.439 19.452C180.665 19.452 180.107 18.93 180.107 18.246C180.107 17.544 180.665 17.04 181.439 17.04C182.213 17.04 182.753 17.544 182.753 18.246ZM182.357 30H180.539V20.46H182.357V30ZM193.989 25.23C193.989 28.11 192.333 30.18 189.777 30.18C188.481 30.18 187.383 29.532 186.699 28.38V33.474H184.881V20.46H186.573V22.206C187.257 20.982 188.427 20.28 189.777 20.28C192.315 20.28 193.989 22.35 193.989 25.23ZM192.099 25.23C192.099 23.088 190.965 21.882 189.399 21.882C187.887 21.882 186.699 23.088 186.699 25.23C186.699 27.336 187.869 28.56 189.399 28.56C190.965 28.56 192.099 27.372 192.099 25.23Z" fill="white"/>
<defs>
<filter id="filter0_d_47_81" x="4.77197" y="0" width="240.456" height="51.8286" filterUnits="userSpaceOnUse" color-interpolation-filters="sRGB">
<feFlood flood-opacity="0" result="BackgroundImageFix"/>
<feColorMatrix in="SourceAlpha" type="matrix" values="0 0 0 0 0 0 0 0 0 0 0 0 0 0 0 0 0 0 127 0" result="hardAlpha"/>
<feOffset dy="4"/>
<feGaussianBlur stdDeviation="2"/>
<feComposite in2="hardAlpha" operator="out"/>
<feColorMatrix type="matrix" values="0 0 0 0 0 0 0 0 0 0 0 0 0 0 0 0 0 0 0.15 0"/>
<feBlend mode="normal" in2="BackgroundImageFix" result="effect1_dropShadow_47_81"/>
<feBlend mode="normal" in="SourceGraphic" in2="effect1_dropShadow_47_81" result="shape"/>
</filter>
<linearGradient id="paint0_linear_47_81" x1="8.77197" y1="7.73406" x2="252.589" y2="79.5632" gradientUnits="userSpaceOnUse">
<stop stop-color="#D32121"/>
<stop offset="0.541" stop-color="#FB6161"/>
<stop offset="1" stop-color="#D32121"/>
</linearGradient>
</defs>
</svg>
