<svg width="250" height="59" viewBox="0 0 250 59" fill="none" xmlns="http://www.w3.org/2000/svg">
<path d="M23.0263 58.1572L8.77191 43.8286H23.0263V58.1572Z" fill="#A90101"/>
<g filter="url(#filter0_d_45_69)">
<path d="M8.77191 0H241.228L225.627 21.9143L241.228 43.8286H8.77191L9.02191 21.9143L8.77191 0Z" fill="url(#paint0_linear_45_69)"/>
</g>
<path d="M57.384 30H55.404V17.076H57.384V30ZM61.8593 30H60.0413V20.46H61.7333V22.044C62.3813 20.946 63.4072 20.28 64.7213 20.28C66.1253 20.28 67.1873 21 67.6193 22.26C68.2852 21.036 69.3833 20.28 70.8413 20.28C72.8033 20.28 74.0633 21.558 74.0633 23.826V30H72.2453V24.402C72.2453 22.818 71.5433 21.882 70.2113 21.882C68.9693 21.882 67.9613 22.926 67.9613 24.528V30H66.1433V24.402C66.1433 22.818 65.4413 21.882 64.1093 21.882C62.8493 21.882 61.8593 22.926 61.8593 24.528V30ZM85.6024 25.23C85.6024 28.11 83.9464 30.18 81.3904 30.18C80.0944 30.18 78.9964 29.532 78.3124 28.38V33.474H76.4944V20.46H78.1864V22.206C78.8704 20.982 80.0404 20.28 81.3904 20.28C83.9284 20.28 85.6024 22.35 85.6024 25.23ZM83.7124 25.23C83.7124 23.088 82.5784 21.882 81.0124 21.882C79.5004 21.882 78.3124 23.088 78.3124 25.23C78.3124 27.336 79.4824 28.56 81.0124 28.56C82.5784 28.56 83.7124 27.372 83.7124 25.23ZM91.4415 30.18C88.7415 30.18 86.7615 28.056 86.7615 25.23C86.7615 22.404 88.7415 20.28 91.4415 20.28C94.1415 20.28 96.1215 22.404 96.1215 25.23C96.1215 28.056 94.1415 30.18 91.4415 30.18ZM91.4415 28.578C93.0075 28.578 94.2495 27.318 94.2495 25.23C94.2495 23.142 93.0075 21.9 91.4415 21.9C89.8755 21.9 88.6515 23.142 88.6515 25.23C88.6515 27.318 89.8755 28.578 91.4415 28.578ZM99.7928 25.122V30H97.9748V20.46H99.6668V22.476C100.333 21.162 101.773 20.334 103.339 20.334V22.224C101.287 22.116 99.7928 23.016 99.7928 25.122ZM110.74 28.236V29.838C110.182 30.09 109.696 30.18 109.12 30.18C107.356 30.18 106.132 29.226 106.132 27.12V22.008H104.026V20.46H106.132V17.634H107.95V20.46H110.83V22.008H107.95V26.706C107.95 28.02 108.58 28.488 109.552 28.488C109.984 28.488 110.362 28.416 110.74 28.236ZM118.343 30V28.524C117.749 29.586 116.687 30.18 115.283 30.18C113.303 30.18 112.007 29.046 112.007 27.3C112.007 25.428 113.501 24.456 116.345 24.456C116.903 24.456 117.353 24.474 118.127 24.564V23.862C118.127 22.494 117.389 21.72 116.129 21.72C114.797 21.72 113.987 22.512 113.933 23.844H112.277C112.367 21.702 113.897 20.28 116.129 20.28C118.487 20.28 119.855 21.612 119.855 23.88V30H118.343ZM113.735 27.246C113.735 28.236 114.473 28.884 115.643 28.884C117.173 28.884 118.127 27.93 118.127 26.472V25.698C117.425 25.608 116.921 25.59 116.453 25.59C114.635 25.59 113.735 26.13 113.735 27.246ZM124.103 24.618V30H122.285V20.46H123.977V22.044C124.625 20.982 125.705 20.28 127.019 20.28C128.981 20.28 130.277 21.54 130.277 23.826V30H128.459V24.438C128.459 22.8 127.739 21.882 126.389 21.882C125.147 21.882 124.103 22.926 124.103 24.618ZM138.038 28.236V29.838C137.48 30.09 136.994 30.18 136.418 30.18C134.654 30.18 133.43 29.226 133.43 27.12V22.008H131.324V20.46H133.43V17.634H135.248V20.46H138.128V22.008H135.248V26.706C135.248 28.02 135.878 28.488 136.85 28.488C137.282 28.488 137.66 28.416 138.038 28.236ZM152.409 30L145.605 19.902V30H143.769V17.076H145.929L152.571 26.904V17.076H154.407V30H152.409ZM161.051 30.18C158.351 30.18 156.371 28.056 156.371 25.23C156.371 22.404 158.351 20.28 161.051 20.28C163.751 20.28 165.731 22.404 165.731 25.23C165.731 28.056 163.751 30.18 161.051 30.18ZM161.051 28.578C162.617 28.578 163.859 27.318 163.859 25.23C163.859 23.142 162.617 21.9 161.051 21.9C159.485 21.9 158.261 23.142 158.261 25.23C158.261 27.318 159.485 28.578 161.051 28.578ZM172.79 28.236V29.838C172.232 30.09 171.746 30.18 171.17 30.18C169.406 30.18 168.182 29.226 168.182 27.12V22.008H166.076V20.46H168.182V17.634H170V20.46H172.88V22.008H170V26.706C170 28.02 170.63 28.488 171.602 28.488C172.034 28.488 172.412 28.416 172.79 28.236ZM178.276 30.18C175.522 30.18 173.668 28.182 173.668 25.176C173.668 22.35 175.594 20.28 178.222 20.28C181.066 20.28 182.956 22.584 182.632 25.68H175.522C175.666 27.624 176.638 28.758 178.24 28.758C179.59 28.758 180.526 28.02 180.832 26.778H182.632C182.164 28.902 180.526 30.18 178.276 30.18ZM178.186 21.648C176.728 21.648 175.738 22.692 175.54 24.474H180.706C180.616 22.71 179.662 21.648 178.186 21.648Z" fill="white"/>
<defs>
<filter id="filter0_d_45_69" x="4.77191" y="0" width="240.456" height="51.8286" filterUnits="userSpaceOnUse" color-interpolation-filters="sRGB">
<feFlood flood-opacity="0" result="BackgroundImageFix"/>
<feColorMatrix in="SourceAlpha" type="matrix" values="0 0 0 0 0 0 0 0 0 0 0 0 0 0 0 0 0 0 127 0" result="hardAlpha"/>
<feOffset dy="4"/>
<feGaussianBlur stdDeviation="2"/>
<feComposite in2="hardAlpha" operator="out"/>
<feColorMatrix type="matrix" values="0 0 0 0 0 0 0 0 0 0 0 0 0 0 0 0 0 0 0.15 0"/>
<feBlend mode="normal" in2="BackgroundImageFix" result="effect1_dropShadow_45_69"/>
<feBlend mode="normal" in="SourceGraphic" in2="effect1_dropShadow_45_69" result="shape"/>
</filter>
<linearGradient id="paint0_linear_45_69" x1="8.77191" y1="7.73406" x2="252.589" y2="79.5632" gradientUnits="userSpaceOnUse">
<stop stop-color="#D32121"/>
<stop offset="0.541" stop-color="#FB6161"/>
<stop offset="1" stop-color="#D32121"/>
</linearGradient>
</defs>
</svg>
