<svg width="453" height="401" viewBox="0 0 453 401" fill="none" xmlns="http://www.w3.org/2000/svg">
<path fill-rule="evenodd" clip-rule="evenodd" d="M38.1474 80.1008C38.0711 58.0088 21.0213 40.1246 0 40.1246C21.0682 40.1246 38.1474 22.16 38.1474 0C38.2233 22.092 55.2734 39.9761 76.2947 39.9761C55.2262 39.9761 38.1474 57.9408 38.1474 80.1008Z" fill="#39C988" fill-opacity="0.3"/>
<path fill-rule="evenodd" clip-rule="evenodd" d="M114.442 80.1008C114.366 58.0088 97.3162 40.1246 76.2949 40.1246C97.3631 40.1246 114.442 22.16 114.442 0C114.518 22.092 131.568 39.9761 152.59 39.9761C131.521 39.9761 114.442 57.9408 114.442 80.1008Z" fill="#39C988" fill-opacity="0.3"/>
<path fill-rule="evenodd" clip-rule="evenodd" d="M190.737 80.1008C190.66 58.0088 173.611 40.1246 152.589 40.1246C173.658 40.1246 190.737 22.16 190.737 0C190.813 22.092 207.863 39.9761 228.884 39.9761C207.816 39.9761 190.737 57.9408 190.737 80.1008Z" fill="#39C988" fill-opacity="0.3"/>
<path fill-rule="evenodd" clip-rule="evenodd" d="M267.032 80.1008C266.955 58.0088 249.906 40.1246 228.884 40.1246C249.952 40.1246 267.032 22.16 267.032 0C267.108 22.092 284.158 39.9761 305.179 39.9761C284.11 39.9761 267.032 57.9408 267.032 80.1008Z" fill="#39C988" fill-opacity="0.3"/>
<path fill-rule="evenodd" clip-rule="evenodd" d="M343.326 80.1008C343.25 58.0088 326.2 40.1246 305.179 40.1246C326.247 40.1246 343.326 22.16 343.326 0C343.402 22.092 360.452 39.9761 381.473 39.9761C360.405 39.9761 343.326 57.9408 343.326 80.1008Z" fill="#39C988" fill-opacity="0.3"/>
<path fill-rule="evenodd" clip-rule="evenodd" d="M414.852 80.1008C414.776 58.0088 397.726 40.1246 376.705 40.1246C397.773 40.1246 414.852 22.16 414.852 0C414.928 22.092 431.978 39.9761 453 39.9761C431.931 39.9761 414.852 57.9408 414.852 80.1008Z" fill="#39C988" fill-opacity="0.3"/>
<path fill-rule="evenodd" clip-rule="evenodd" d="M38.1474 160.202C38.0711 138.11 21.0213 120.225 0 120.225C21.0682 120.225 38.1474 102.261 38.1474 80.1008C38.2233 102.193 55.2734 120.077 76.2947 120.077C55.2262 120.077 38.1474 138.042 38.1474 160.202Z" fill="#39C988" fill-opacity="0.3"/>
<path fill-rule="evenodd" clip-rule="evenodd" d="M114.442 160.202C114.366 138.11 97.3162 120.225 76.2949 120.225C97.3631 120.225 114.442 102.261 114.442 80.1008C114.518 102.193 131.568 120.077 152.59 120.077C131.521 120.077 114.442 138.042 114.442 160.202Z" fill="#39C988" fill-opacity="0.3"/>
<path fill-rule="evenodd" clip-rule="evenodd" d="M190.737 160.202C190.66 138.11 173.611 120.225 152.589 120.225C173.658 120.225 190.737 102.261 190.737 80.1008C190.813 102.193 207.863 120.077 228.884 120.077C207.816 120.077 190.737 138.042 190.737 160.202Z" fill="#39C988" fill-opacity="0.3"/>
<path fill-rule="evenodd" clip-rule="evenodd" d="M267.032 160.202C266.955 138.11 249.906 120.225 228.884 120.225C249.952 120.225 267.032 102.261 267.032 80.1008C267.108 102.193 284.158 120.077 305.179 120.077C284.11 120.077 267.032 138.042 267.032 160.202Z" fill="#39C988" fill-opacity="0.3"/>
<path fill-rule="evenodd" clip-rule="evenodd" d="M343.326 160.202C343.25 138.11 326.2 120.225 305.179 120.225C326.247 120.225 343.326 102.261 343.326 80.1008C343.402 102.193 360.452 120.077 381.473 120.077C360.405 120.077 343.326 138.042 343.326 160.202Z" fill="#39C988" fill-opacity="0.3"/>
<path fill-rule="evenodd" clip-rule="evenodd" d="M38.1474 240.302C38.0711 218.21 21.0213 200.326 0 200.326C21.0682 200.326 38.1474 182.362 38.1474 160.202C38.2233 182.294 55.2734 200.178 76.2947 200.178C55.2262 200.178 38.1474 218.142 38.1474 240.302Z" fill="#39C988" fill-opacity="0.3"/>
<path fill-rule="evenodd" clip-rule="evenodd" d="M114.442 240.302C114.366 218.21 97.3162 200.326 76.2949 200.326C97.3631 200.326 114.442 182.362 114.442 160.202C114.518 182.294 131.568 200.178 152.59 200.178C131.521 200.178 114.442 218.142 114.442 240.302Z" fill="#39C988" fill-opacity="0.3"/>
<path fill-rule="evenodd" clip-rule="evenodd" d="M190.737 240.302C190.66 218.21 173.611 200.326 152.589 200.326C173.658 200.326 190.737 182.362 190.737 160.202C190.813 182.294 207.863 200.178 228.884 200.178C207.816 200.178 190.737 218.142 190.737 240.302Z" fill="#39C988" fill-opacity="0.3"/>
<path fill-rule="evenodd" clip-rule="evenodd" d="M267.032 240.302C266.955 218.21 249.906 200.326 228.884 200.326C249.952 200.326 267.032 182.362 267.032 160.202C267.108 182.294 284.158 200.178 305.179 200.178C284.11 200.178 267.032 218.142 267.032 240.302Z" fill="#39C988" fill-opacity="0.3"/>
<path fill-rule="evenodd" clip-rule="evenodd" d="M38.1474 320.403C38.0711 298.311 21.0213 280.427 0 280.427C21.0682 280.427 38.1474 262.462 38.1474 240.302C38.2233 262.394 55.2734 280.278 76.2947 280.278C55.2262 280.278 38.1474 298.243 38.1474 320.403Z" fill="#39C988" fill-opacity="0.3"/>
<path fill-rule="evenodd" clip-rule="evenodd" d="M114.442 320.403C114.366 298.311 97.3162 280.427 76.2949 280.427C97.3631 280.427 114.442 262.462 114.442 240.302C114.518 262.394 131.568 280.278 152.59 280.278C131.521 280.278 114.442 298.243 114.442 320.403Z" fill="#39C988" fill-opacity="0.3"/>
<path fill-rule="evenodd" clip-rule="evenodd" d="M190.737 320.403C190.66 298.311 173.611 280.427 152.589 280.427C173.658 280.427 190.737 262.462 190.737 240.302C190.813 262.394 207.863 280.278 228.884 280.278C207.816 280.278 190.737 298.243 190.737 320.403Z" fill="#39C988" fill-opacity="0.3"/>
<path fill-rule="evenodd" clip-rule="evenodd" d="M38.1474 400.504C38.0711 378.412 21.0213 360.528 0 360.528C21.0682 360.528 38.1474 342.563 38.1474 320.403C38.2233 342.495 55.2734 360.379 76.2947 360.379C55.2262 360.379 38.1474 378.344 38.1474 400.504Z" fill="#39C988" fill-opacity="0.3"/>
<path fill-rule="evenodd" clip-rule="evenodd" d="M114.442 400.504C114.366 378.412 97.3162 360.528 76.2949 360.528C97.3631 360.528 114.442 342.563 114.442 320.403C114.518 342.495 131.568 360.379 152.59 360.379C131.521 360.379 114.442 378.344 114.442 400.504Z" fill="#39C988" fill-opacity="0.3"/>
</svg>
